<?xml version="1.0" encoding="utf-8"?>
<!-- Svg Vector Icons : http://www.onlinewebfonts.com/icon -->
<!DOCTYPE svg PUBLIC "-//W3C//DTD SVG 1.1//EN" "http://www.w3.org/Graphics/SVG/1.1/DTD/svg11.dtd">
<svg version="1.1" xmlns="http://www.w3.org/2000/svg" xmlns:xlink="http://www.w3.org/1999/xlink" x="0px" y="0px" viewBox="0 0 1000 1000" enable-background="new 0 0 1000 1000" xml:space="preserve">
<metadata> Svg Vector Icons : http://www.onlinewebfonts.com/icon </metadata>
<g><path d="M690.8,164.8l146.5,146.5c-75.9,75.9-184.5,184.5-287.2,287.2c-104.7,104.7-205,205-256.8,256.8L146.8,708.8C247.7,607.8,536.5,319.1,690.8,164.8 M690.8,95.5C528.5,257.8,117.3,669,78.9,707.4c-0.5,0.4-1,1-1.4,1.5l215.7,215.7c0.5-0.4,1.1-0.9,1.5-1.4c41.2-41.3,450.1-450.1,611.8-611.9L690.8,95.5L690.8,95.5z"/><path d="M107.7,765.3l128.8,128.8c-14.2,6.6-31.2,13.5-50.5,20c-45.3,15.3-91.7,24.8-121.1,24.8c-2.2,0-4.2-0.1-5.9-0.1c-0.1-6.1,0.3-15.3,2.3-28.5c3.2-21.4,9.5-46.9,18.2-73.7C88.4,809.2,98.3,784.8,107.7,765.3 M99,687.3C51.2,737.8-16.2,939.8,20.5,976.5c8,8,23.9,11.5,44.4,11.5c73.8,0,207.7-44.8,249.8-84.9L99,687.3L99,687.3z"/><path d="M756.1,30.1c0,0-10.3,10.3-28.3,28.4l215.8,215.8c18-18,28.4-28.3,28.4-28.3c24-24.1,24-63.1,0-87.2L843.4,30.1C819.3,6,780.2,6,756.1,30.1z"/></g>
</svg>