<?xml version="1.0" encoding="utf-8"?>
<!-- Svg Vector Icons : http://www.onlinewebfonts.com/icon -->
<!DOCTYPE svg PUBLIC "-//W3C//DTD SVG 1.1//EN" "http://www.w3.org/Graphics/SVG/1.1/DTD/svg11.dtd">
<svg version="1.1" xmlns="http://www.w3.org/2000/svg" xmlns:xlink="http://www.w3.org/1999/xlink" x="0px" y="0px" viewBox="0 0 1000 1000" enable-background="new 0 0 1000 1000" xml:space="preserve">
<metadata> Svg Vector Icons : http://www.onlinewebfonts.com/icon </metadata>
<g><g transform="translate(0.000000,511.000000) scale(0.100000,-0.100000)"><path d="M6918.9,4695.5c-818.7-144.6-1461.5-605.7-1842.5-1320.8c-287.2-539.3-375.1-1225.1-230.6-1817.1l35.2-146.5L2491.5-982.4C109.8-3368,100-3375.9,100-3454c0-115.3,361.5-959.3,433.8-1012.1c50.8-39.1,62.5-39.1,781.5-13.7c765.9,25.4,830.4,33.2,875.3,119.2c13.7,23.4,87.9,281.4,164.1,572.5l140.7,529.5l640.9,127c586.2,117.2,644.8,132.9,683.8,177.8c39.1,44.9,56.7,144.6,154.4,838.2c62.5,433.8,113.3,791.3,117.2,793.3c2,2,263.8-3.9,580.3-11.7c343.9-7.8,595.9-7.8,625.2,3.9c27.4,9.8,291.1,257.9,586.2,552.9l537.3,535.3L6534-281c293.1-99.6,691.7-144.6,1019.9-115.3c1176.2,109.4,2057.4,887,2309.5,2035.9c48.8,228.6,48.8,818.7,0,1047.2c-115.3,525.6-332.1,928.1-697.5,1295.4c-353.6,355.6-736.6,564.7-1250.5,685.8C7700.4,4718.9,7135.8,4734.5,6918.9,4695.5z M7563.7,4332c482.6-54.7,914.4-257.9,1270-599.8c590.1-562.7,818.7-1332.5,623.3-2102.3c-48.8-195.4-201.3-519.7-324.4-695.6c-279.4-394.7-703.4-707.3-1148.8-848c-447.4-140.7-978.9-115.3-1434.1,66.4c-240.3,97.7-199.3,121.1-844-521.7l-560.8-560.7L4490.3-914l-654.5,13.7l-60.6-56.7l-62.5-54.7l-113.3-806.9c-62.5-443.5-119.2-810.8-123.1-816.7c-5.9-3.9-281.3-60.6-611.5-127c-332.2-64.5-619.4-127-638.9-136.8c-66.4-35.2-89.9-103.6-228.6-621.3c-76.2-283.3-140.7-517.8-142.6-519.7c-13.7-11.7-1062.9-44.9-1072.7-33.2c-5.9,7.8-60.6,134.8-125,283.3l-113.3,271.6l2375.9,2375.9C4595.8,533.8,5301.1,1252.8,5312.9,1293.8c13.7,43,3.9,107.5-37.1,250.1c-226.7,789.4-43,1537.7,523.6,2125.8C6272.2,4160.1,6926.7,4406.3,7563.7,4332z"/><path d="M7757.1,3544.6c-308.7-107.5-476.8-355.6-476.8-707.3c0-338,160.2-582.2,459.2-697.5c152.4-58.6,416.2-58.6,568.6,2c308.7,119.2,457.2,349.7,457.2,705.3c-1.9,246.2-50.8,377.1-203.2,529.5c-140.7,140.7-279.4,195.4-509.9,207.1C7915.4,3589.6,7862.6,3583.7,7757.1,3544.6z M8167.4,3171.5c72.3-39.1,193.4-173.9,209.1-236.4c56.7-222.7-156.3-478.7-375.1-453.3c-115.3,11.7-228.6,89.9-293.1,199.3c-93.8,160.2-43,332.2,134.8,461.1C7933,3206.6,8073.6,3220.3,8167.4,3171.5z"/></g></g>
</svg>