<?xml version="1.0" encoding="utf-8"?>
<!-- Svg Vector Icons : http://www.onlinewebfonts.com/icon -->
<!DOCTYPE svg PUBLIC "-//W3C//DTD SVG 1.1//EN" "http://www.w3.org/Graphics/SVG/1.1/DTD/svg11.dtd">
<svg version="1.1" xmlns="http://www.w3.org/2000/svg" xmlns:xlink="http://www.w3.org/1999/xlink" x="0px" y="0px" viewBox="0 0 1000 1000" enable-background="new 0 0 1000 1000" xml:space="preserve">
<metadata> Svg Vector Icons : http://www.onlinewebfonts.com/icon </metadata>
<g><g transform="translate(0.000000,512.000000) scale(0.100000,-0.100000)"><path d="M5937.4,5013.8c-120.8-19.2-274.2-70.9-402.7-138c-122.7-61.4-256.9-189.8-1568.4-1497.5c-788.1-786.1-1464.9-1476.4-1503.2-1532c-235.8-354.7-258.9-790-61.4-1192.6c72.9-147.6,111.2-193.7,418-504.3l335.5-339.4l-281.9-283.8c-274.2-274.2-281.9-283.8-281.9-362.4c0-46,34.5-283.8,76.7-531.1c84.4-487,84.4-510-13.4-586.7c-53.7-42.2-53.7-42.2-581-28.8c-527.3,13.4-527.3,13.4-581-28.8c-30.7-24.9-61.4-61.3-70.9-84.3c-7.7-24.9,1.9-249.3,23-525.4c42.2-540.7,38.4-563.7-80.5-621.2c-63.3-30.7-88.2-30.7-450.6,3.8c-592.5,57.5-632.7,53.7-692.2-61.3c-28.8-53.7-26.8-107.4,11.5-684.5c44.1-673,53.7-726.7,153.4-778.5c53.7-26.8,101.6-24.9,646.2,28.8c326,32.6,628.9,69,676.8,80.6c80.5,19.2,191.7,126.5,1537.8,1468.7l1451.5,1449.5l293.4-287.6c241.6-237.8,318.3-301,431.4-358.5c389.2-191.7,849.4-164.9,1194.5,70.9c78.6,55.6,638.5,602.1,1545.4,1510.9L9586.2,624.8l78.6,163c187.9,383.5,176.4,791.9-30.7,1150.4c-57.5,101.6-324,377.7-1424.6,1478.3C6765.7,4862.3,6769.6,4860.4,6480,4956.3C6334.3,5006.1,6067.8,5033,5937.4,5013.8z M7185.6,3144.3c592.5-107.4,914.6-753.5,648.1-1298.1c-301-613.6-1146.6-686.4-1553.1-134.2c-140,191.7-201.3,448.7-163,680.7c61.3,356.6,339.4,657.7,688.3,742C6942.1,3169.2,7039.9,3171.2,7185.6,3144.3z"/></g></g>
</svg>