<?xml version="1.0" encoding="utf-8"?>
<!-- Svg Vector Icons : http://www.onlinewebfonts.com/icon -->
<!DOCTYPE svg PUBLIC "-//W3C//DTD SVG 1.1//EN" "http://www.w3.org/Graphics/SVG/1.1/DTD/svg11.dtd">
<svg version="1.1" xmlns="http://www.w3.org/2000/svg" xmlns:xlink="http://www.w3.org/1999/xlink" x="0px" y="0px" viewBox="0 0 1000 1000" enable-background="new 0 0 1000 1000" xml:space="preserve">
<metadata> Svg Vector Icons : http://www.onlinewebfonts.com/icon </metadata>
<g><g transform="translate(0.000000,512.000000) scale(0.100000,-0.100000)"><path d="M6248.7,5014.1c-30.6-5.7-124.5-21.1-204.9-36.4c-1018.9-199.2-1815.6-1072.5-1949.6-2139.2c-9.6-86.2-19.1-440.5-19.1-785.2v-628.2h-325.6h-325.6v-181.9c0-99.6-3.8-181.9-7.7-181.9c-3.8,0-74.7,34.5-157,74.7c-319.8,159-616.7,222.2-965.2,206.8C1412.9,1300.6,689,714.6,461.1-141.5c-44-160.9-49.8-226-51.7-482.6c0-243.2,5.7-325.6,40.2-459.6C685.2-2018.4,1520.2-2636.9,2483.5-2591c122.6,5.7,285.4,24.9,362,42.1c137.9,32.6,141.7,32.6,181.9-5.7c28.7-26.8,137.9-61.3,339-109.2c162.8-38.3,312.2-72.8,331.3-78.5c28.7-9.6,32.6-38.3,32.6-239.4c0-312.2,47.9-417.5,220.2-497.9c61.3-28.7,124.5-36.4,312.2-36.4h233.7v-197.3v-197.3l111.1-109.2l111.1-109.2h137.9h137.9v-139.8v-139.8l130.2-128.3l130.3-128.3h114.9c103.4,0,120.7-5.7,170.5-57.5l55.5-57.5h296.9c329.4,0,411.8,15.3,501.8,90c118.7,101.5,132.2,159,132.2,630.1v425.2l-316,312.2c-174.3,172.4-316,319.8-316,329.4c0,7.7,831.2,13.4,1848.1,13.4h1848.1v2202.4v2202.4h-323.7h-323.7l-9.6,723.9c-9.6,771.8-17.2,840.8-120.6,1160.6c-205,635.8-670.3,1177.8-1262.1,1472.7c-155.1,76.6-381.1,155.1-574.6,197.3C6844.3,5008.3,6361.7,5031.3,6248.7,5014.1z M6823.2,4613.8c750.7-120.7,1369.3-658.8,1618.3-1407.6c95.8-283.4,114.9-473,114.9-1162.5v-618.6h-381.1h-381.1l-7.7,676c-7.6,639.7-9.6,681.8-51.7,808.2c-80.4,245.1-168.5,388.8-344.7,565c-260.4,258.5-515.2,363.9-882.9,363.9c-367.7,0-622.4-105.3-882.9-363.9c-176.2-176.2-264.3-319.8-344.7-565c-42.1-128.3-44-166.6-51.7-808.2l-5.7-676h-383H4458v620.5c0,660.7,13.4,819.7,88.1,1082.1C4841,4142.7,5815.8,4778.5,6823.2,4613.8z M6784.9,3416.8c226-78.5,402.2-231.7,509.4-444.3c101.5-201.1,113-293,113-948v-599.4h-902h-900.1l5.7,656.9c5.8,637.7,7.7,658.8,51.7,769.9c114.9,287.3,294.9,469.2,559.2,565C6367.4,3468.5,6633.6,3468.5,6784.9,3416.8z M9207.6-777.3v-1819.4H7348H5486.4l-626.3,628.2L4232-1342.3l49.8,181.9c42.1,160.9,47.9,220.2,47.9,507.5c1.9,293-3.8,344.7-49.8,517.1c-63.2,239.4-226,568.8-367.7,743.1l-105.3,128.3v153.2V1042h2700.4h2700.4V-777.3z M2048.7,530.7c124.5-57.5,254.7-181.9,316-310.2c70.9-143.6,76.6-383,11.5-522.8c-57.5-126.4-183.8-254.7-310.2-316c-91.9-45.9-130.2-53.6-270-53.6c-139.8,0-178.1,7.7-270,53.6c-427.1,208.8-484.5,769.9-109.2,1072.5C1579.5,584.3,1851.5,616.9,2048.7,530.7z"/></g></g>
</svg>