<?xml version="1.0" encoding="iso-8859-1"?>
<!-- Generator: Adobe Illustrator 17.1.0, SVG Export Plug-In . SVG Version: 6.00 Build 0)  -->
<!DOCTYPE svg PUBLIC "-//W3C//DTD SVG 1.1//EN" "http://www.w3.org/Graphics/SVG/1.1/DTD/svg11.dtd">
<svg version="1.1" id="Capa_1" xmlns="http://www.w3.org/2000/svg" xmlns:xlink="http://www.w3.org/1999/xlink" x="0px" y="0px"
	 viewBox="0 0 348.901 348.901" style="enable-background:new 0 0 348.901 348.901;" xml:space="preserve">
<path d="M290.78,124.956h-0.094V35c0-19.299-15.701-35-35-35H93.215c-19.299,0-35,15.701-35,35v89.956h-0.094
	c-11.028,0-20,8.972-20,20v183.945c0,11.028,8.972,20,20,20H290.78c11.028,0,20-8.972,20-20V144.956
	C310.78,133.928,301.808,124.956,290.78,124.956z M194.971,243.58l-0.581,46.779c-0.027,2.2-1.85,4-4.05,4h-31.967
	c-2.2,0-4-1.8-4.001-4l-0.011-46.472c-8.583-6.226-14.17-16.33-14.17-27.744c0-18.921,15.339-34.26,34.26-34.26
	s34.26,15.338,34.26,34.26C208.71,227.368,203.312,237.331,194.971,243.58z M250.686,124.956H98.215V40h152.471V124.956z"/>
<g>
</g>
<g>
</g>
<g>
</g>
<g>
</g>
<g>
</g>
<g>
</g>
<g>
</g>
<g>
</g>
<g>
</g>
<g>
</g>
<g>
</g>
<g>
</g>
<g>
</g>
<g>
</g>
<g>
</g>
</svg>
