<?xml version="1.0" encoding="utf-8"?>
<!-- Svg Vector Icons : http://www.onlinewebfonts.com/icon -->
<!DOCTYPE svg PUBLIC "-//W3C//DTD SVG 1.1//EN" "http://www.w3.org/Graphics/SVG/1.1/DTD/svg11.dtd">
<svg version="1.1" xmlns="http://www.w3.org/2000/svg" xmlns:xlink="http://www.w3.org/1999/xlink" x="0px" y="0px" viewBox="0 0 1000 1000" enable-background="new 0 0 1000 1000" xml:space="preserve">
<metadata> Svg Vector Icons : http://www.onlinewebfonts.com/icon </metadata>
<g><path d="M497.8,544.5c-40.1,0-75.7-13.4-106.9-31.2C315.1,464.4,275,361.9,275,232.7C275,108,373,10,497.8,10s222.7,98,222.7,222.7c0,129.2-40.1,231.6-115.8,280.6C573.5,531.2,537.9,544.5,497.8,544.5z M497.8,99.1c-75.7,0-133.6,57.9-133.6,133.6c0,98,26.7,173.7,75.7,204.9c35.6,22.3,80.2,22.3,115.8,0c49-31.2,75.7-106.9,75.7-204.9C631.4,157,573.5,99.1,497.8,99.1z"/><path d="M497.8,990c-102.5,0-445.5-13.4-445.5-178.2S172.6,589.1,306.2,549c8.9-4.5,44.5-17.8,57.9-84.6l89.1,17.8c-13.4,80.2-57.9,129.2-120.3,151.5c-133.6,44.5-191.5,80.2-191.5,178.2c0,49,187.1,89.1,356.4,89.1c169.3,0,356.4-40.1,356.4-89.1c0-98-57.9-133.6-191.5-182.6c-62.4-22.3-102.5-71.3-120.3-151.5l89.1-17.8c13.4,66.8,49,80.2,62.4,84.6c133.6,44.5,253.9,98,253.9,262.8C943.2,851.9,912,990,497.8,990z"/></g>
</svg>