<?xml version="1.0" encoding="utf-8"?>
<!-- Svg Vector Icons : http://www.onlinewebfonts.com/icon -->
<!DOCTYPE svg PUBLIC "-//W3C//DTD SVG 1.1//EN" "http://www.w3.org/Graphics/SVG/1.1/DTD/svg11.dtd">
<svg version="1.1" xmlns="http://www.w3.org/2000/svg" xmlns:xlink="http://www.w3.org/1999/xlink" x="0px" y="0px" viewBox="0 0 1000 1000" enable-background="new 0 0 1000 1000" xml:space="preserve">
<metadata> Svg Vector Icons : http://www.onlinewebfonts.com/icon </metadata>
<g><path d="M602.7,481.5C687.7,442.4,747,356.6,747,257c0-136.2-110.8-247-247-247c-136.2,0-247,110.8-247,247c0,99.6,59.3,185.3,144.4,224.4C183.6,528.6,23.1,719.2,23.1,946.9v17.2h142.2c9.5,0,17.2-7.7,17.2-17.2c0-9.5-7.7-17.2-17.2-17.2H58c9.1-236,203.9-425.1,442-425.1c238.2,0,433,189.2,442,425.1H824.6c-9.5,0-17.2,7.7-17.2,17.2c0,9.5,7.7,17.2,17.2,17.2h152.2v-17.2C976.9,719.2,816.4,528.6,602.7,481.5z M287.4,257c0-117.2,95.4-212.6,212.6-212.6c117.2,0,212.6,95.4,212.6,212.6S617.2,469.6,500,469.6C382.8,469.6,287.4,374.3,287.4,257z"/><path d="M500,990"/><path d="M500,990"/></g>
</svg>