<?xml version="1.0" encoding="utf-8"?>
<!-- Svg Vector Icons : http://www.onlinewebfonts.com/icon -->
<!DOCTYPE svg PUBLIC "-//W3C//DTD SVG 1.1//EN" "http://www.w3.org/Graphics/SVG/1.1/DTD/svg11.dtd">
<svg version="1.1" xmlns="http://www.w3.org/2000/svg" xmlns:xlink="http://www.w3.org/1999/xlink" x="0px" y="0px" viewBox="0 0 1000 1000" enable-background="new 0 0 1000 1000" xml:space="preserve">
<metadata> Svg Vector Icons : http://www.onlinewebfonts.com/icon </metadata>
<g><path d="M784.7,517.9c47.8-29.4,79.9-81.7,79.9-141.7c0-91.9-74.8-166.8-166.8-166.8c-32.5,0-63.9,9.7-91,27.4c8.4,18.6,14.5,38.4,17.8,59.1c3.9-3.6,7.5-7.5,11.9-10.5c18.2-12.2,39.2-18.7,61.2-18.7c60.4,0,109.5,49.2,109.5,109.5c0,60.3-49.1,109.5-109.5,109.5c-7.1,0-13.9-0.7-20.7-2c-31.2-6-56.1-25.8-71.5-51.7c-9,18.6-20.2,36.1-33.8,51.8c10.8,12.6,22.9,23.9,37.1,33c21,13.8,40,30.1,57.7,47.7c10.9-1.6,22-3.4,33.5-3.4c128.3,0,232.6,104.3,232.6,232.7c0,15.9,12.9,28.7,28.8,28.7c15.8,0,28.7-12.7,28.7-28.7C989.9,663.6,903,554.4,784.7,517.9z"/><path d="M456.6,502.2c56.9-35,95.2-97.2,95.2-168.7c0-109.6-89.1-198.7-198.7-198.7c-109.6,0-198.6,89.2-198.6,198.7c0,72.3,39.2,134.9,97,169.8C111.9,547.7,10,677,10,830.9c0,18.9,15.2,34.3,34.1,34.3s34.1-15.4,34.1-34.3c0-153,124.4-277.3,277.3-277.3c153,0,277.3,124.3,277.3,277.3c0,18.9,15.4,34.3,34.3,34.3c18.8,0,34.1-15.4,34.1-34.3C701.3,675.8,597.8,545.8,456.6,502.2z M353,203c71.9,0,130.4,58.5,130.4,130.4c0,71.8-58.5,130.3-130.4,130.3c-71.8,0-130.4-58.5-130.4-130.3C222.7,261.6,281.2,203,353,203z"/></g>
</svg>