<?xml version="1.0" encoding="utf-8"?>
<!-- Svg Vector Icons : http://www.onlinewebfonts.com/icon -->
<!DOCTYPE svg PUBLIC "-//W3C//DTD SVG 1.1//EN" "http://www.w3.org/Graphics/SVG/1.1/DTD/svg11.dtd">
<svg version="1.1" xmlns="http://www.w3.org/2000/svg" xmlns:xlink="http://www.w3.org/1999/xlink" x="0px" y="0px" viewBox="0 0 1000 1000" enable-background="new 0 0 1000 1000" xml:space="preserve">
<metadata> Svg Vector Icons : http://www.onlinewebfonts.com/icon </metadata>
<g><path d="M10,803.5C53.6,697.9,148.6,659,245.7,624.4c74.4-26.5,152.2-42.8,230.6-43.3c151.6-0.9,296.6,30.1,425.3,115.5c58.3,38.7,93.8,91,87.6,165.3c-2.3,27.3-0.8,55-0.4,82.4c0.2,17.2-7.3,25.6-24.7,24.8c-2-0.1-3.9,0.1-5.9,0.1c-316.1-0.2-632.2-0.5-948.3-0.7C10,913.5,10,858.5,10,803.5z M499.5,915.1c30.4,0,60.8,0,91.3,0c104,0,208.1,0.1,312.1-0.1c13.3,0,29.5,2.8,31.7-17.3c6.4-59.3-0.1-113.7-55.4-150.9C851.4,728.1,823,710.9,792,698c-113.3-47-231.1-70.5-353.5-58.2c-106.1,10.7-208.8,36.1-300.6,94.2c-51.7,32.8-83.6,74.7-75.8,141c4.6,38.7,1.7,40,39.9,40C234.5,915.2,367,915.1,499.5,915.1z"/><path d="M498.2,30.8c123.3-0.1,225.1,102.1,224.6,225.6C722.3,380,620,485.3,500,485.6C378.7,486,274.6,379.1,275.4,255.2C276.2,132.2,376.8,30.9,498.2,30.8z M668.8,256.5c0.7-90.8-77.5-170.9-167.4-171.5c-92.3-0.6-170.8,77-171.9,169.9c-1.1,93.1,79.8,176.8,170.3,176.1C589.9,430.3,668.1,349.6,668.8,256.5z"/></g>
</svg>