<?xml version="1.0" encoding="utf-8"?>
<!-- Svg Vector Icons : http://www.onlinewebfonts.com/icon -->
<!DOCTYPE svg PUBLIC "-//W3C//DTD SVG 1.1//EN" "http://www.w3.org/Graphics/SVG/1.1/DTD/svg11.dtd">
<svg version="1.1" xmlns="http://www.w3.org/2000/svg" xmlns:xlink="http://www.w3.org/1999/xlink" x="0px" y="0px" viewBox="0 0 1000 1000" enable-background="new 0 0 1000 1000" xml:space="preserve">
<metadata> Svg Vector Icons : http://www.onlinewebfonts.com/icon </metadata>
<g><path d="M500,508.8c111.2,0,201.7-90.5,201.7-201.7c0-111.1-90.5-201.6-201.7-201.6c-111.1,0-201.6,90.4-201.6,201.6C298.4,418.4,388.8,508.8,500,508.8L500,508.8z M500,134.6c95.2,0,172.7,77.4,172.7,172.6c0,95.2-77.5,172.6-172.7,172.6c-95.1,0-172.5-77.4-172.5-172.6C327.4,212,404.8,134.6,500,134.6L500,134.6z M804.1,440.5c-27.6,0-53.4-9.2-74.8-26.7c-6.2-5.1-15.3-4.2-20.4,2c-5.1,6.2-4.2,15.3,2,20.4c26.2,21.5,59.3,33.3,93.2,33.3c81.3,0,147.4-66.1,147.4-147.3c0-81.2-66.1-147.3-147.4-147.3c-33.9,0-67,11.8-93.2,33.3c-6.2,5.1-7.1,14.2-2,20.4c5.1,6.2,14.2,7.1,20.4,2c21-17.2,47.5-26.7,74.8-26.7c65.3,0,118.4,53,118.4,118.3C922.5,387.5,869.4,440.5,804.1,440.5L804.1,440.5z M708.6,614.1c-52.4-87.3-162.4-76.4-165.5-76h-89.6c-3.9-0.1-92.5-2.4-144.5,72.4c-28.8,41.4-71.2,200.1-86.1,266.1c-1.8,7.8,3.1,15.6,10.9,17.4c7.8,1.8,15.6-3.1,17.3-11c15.7-69.4,57-220.6,81.6-255.9c42.8-61.5,119.1-59.8,120.2-60l91.7-0.1c1-0.1,96.9-9.3,139.5,62.6c0.3,0.6,0.7,1.1,1.1,1.6c26.1,33,69.9,181.4,86,251.8c1.5,6.7,7.5,11.3,14.1,11.3c1.1,0,2.1-0.1,3.3-0.3c7.8-1.8,12.7-9.6,10.9-17.4C786.9,821.5,742,657.6,708.6,614.1L708.6,614.1z M195.8,469.6c33.9,0,67-11.8,93.2-33.3c6.2-5.1,7.1-14.2,2-20.4c-5.1-6.2-14.2-7.1-20.4-2c-21.3,17.5-47.2,26.7-74.8,26.7c-65.3,0-118.3-53.1-118.3-118.3C77.5,257,130.6,204,195.8,204c27.6,0,53.5,9.2,74.8,26.7c6.2,5.1,15.4,4.2,20.4-2c5.1-6.2,4.2-15.3-2-20.4c-26.2-21.5-59.3-33.3-93.2-33.3C114.6,175,48.5,241,48.5,322.2C48.5,403.5,114.6,469.6,195.8,469.6L195.8,469.6z M989.7,673.4c-15.5-69.7-31.1-116.2-46.4-138.3c-38.1-54.9-103.4-53.2-105.7-53.1l-62.4,0.1c-3.2-0.4-78-7.9-118.2,48.9c-4.6,6.5-3.1,15.6,3.5,20.2c6.5,4.6,15.6,3.1,20.2-3.5c30.1-42.7,90.7-36.9,92.9-36.7h64.5c0.5-0.4,52.1-1.4,81.3,40.7c9,13,23.6,45.8,41.9,128c1.5,6.8,7.5,11.4,14.2,11.4c1,0,2.1-0.1,3.1-0.3C986.4,688.9,991.4,681.2,989.7,673.4L989.7,673.4z M322.7,553.2c4.1,6.9,13,9.2,19.9,5.1c6.9-4.1,9.2-13,5.1-19.9c-38.4-64.8-119.5-56.7-121.4-56.4h-63.4c-2.6,0-68.1-1.8-106.2,53.1c-15.4,22.2-31,68.7-46.4,138.3c-1.7,7.8,3.2,15.6,11,17.3c1.1,0.2,2.1,0.3,3.1,0.3c6.7,0,12.7-4.6,14.2-11.4c14.1-64,29-109.5,41.8-128c28.9-41.7,79.2-40.7,81.9-40.7l65.4-0.1C228.5,510.8,294,504.6,322.7,553.2L322.7,553.2z"/></g>
</svg>