<?xml version="1.0" encoding="utf-8"?>
<!-- Svg Vector Icons : http://www.onlinewebfonts.com/icon -->
<!DOCTYPE svg PUBLIC "-//W3C//DTD SVG 1.1//EN" "http://www.w3.org/Graphics/SVG/1.1/DTD/svg11.dtd">
<svg version="1.1" xmlns="http://www.w3.org/2000/svg" xmlns:xlink="http://www.w3.org/1999/xlink" x="0px" y="0px" viewBox="0 0 1000 1000" enable-background="new 0 0 1000 1000" xml:space="preserve">
<metadata> Svg Vector Icons : http://www.onlinewebfonts.com/icon </metadata>
<g><path d="M503.6,439.1c118.5,0,214.6-96.1,214.6-214.6C718.1,106.1,622.1,10,503.6,10C385.1,10,289,106.1,289,224.5C289,343,385.1,439.1,503.6,439.1z M862.8,767.1v-43c0-134.1-108.7-242.8-242.8-242.8H377.3c-134.1,0-242.8,108.7-242.8,242.8v220.2c0,25.2,20.5,45.7,45.7,45.7h639.6c25.3,0,45.7-20.5,45.7-45.7V773.8C865.5,768.4,864.5,766.6,862.8,767.1z"/></g>
</svg>